<svg xmlns="http://www.w3.org/2000/svg" viewBox="0 0 680 352">
  <rect class="node" x="16" y="16" width="420" height="40" rx="6"/>
  <text class="small" x="30" y="41">Your app:</text>
  <text class="code small" x="100" y="41">Job p</text>
  <text class="small" x="150" y="41">and a handler</text>
  <text class="code small" x="246" y="41">p -&gt; Eff es JobOutcome</text>
  <path class="edge" d="M226 56 V76" marker-end="url(#arrow)"/>

  <text class="heading" x="16" y="96">Layer 2 · job ergonomics</text>
  <rect class="band accent" x="16" y="104" width="420" height="94" rx="8"/>
  <rect class="node accent" x="30" y="116" width="190" height="32" rx="6"/>
  <text class="code small" x="125" y="136" text-anchor="middle">Keiro.PGMQ.Job</text>
  <rect class="node" x="232" y="116" width="190" height="32" rx="6"/>
  <text class="code small" x="327" y="136" text-anchor="middle">Keiro.PGMQ.Codec</text>
  <rect class="node" x="30" y="156" width="190" height="30" rx="6"/>
  <text class="code small" x="125" y="175" text-anchor="middle">Keiro.PGMQ.Dlq</text>
  <rect class="node" x="232" y="156" width="190" height="30" rx="6"/>
  <text class="code small" x="327" y="175" text-anchor="middle">Keiro.PGMQ.Metrics</text>

  <text class="heading muted" x="458" y="96">Case B · deferred</text>
  <rect class="node dashed muted" x="458" y="104" width="206" height="94" rx="8"/>
  <text class="small muted" x="561" y="136" text-anchor="middle">transport codecs for</text>
  <text class="small muted" x="561" y="154" text-anchor="middle">integration events</text>
  <text class="small muted" x="561" y="176" text-anchor="middle">not built</text>
  <text class="small rose" x="550" y="223" text-anchor="end">B may use layer 1, never layer 2</text>

  <path class="edge" d="M226 198 V238" marker-end="url(#arrow)"/>
  <path class="edge dashed muted" d="M561 198 V238" marker-end="url(#arrow-muted)"/>

  <text class="heading" x="16" y="234">Layer 1 · runtime</text>
  <rect class="band violet" x="16" y="242" width="648" height="58" rx="8"/>
  <text class="code small bold" x="30" y="266">Keiro.PGMQ.Runtime</text>
  <text class="code small" x="30" y="288">QueueRef</text>
  <text class="small muted" x="100" y="288">physical and _dlq names</text>
  <text class="code small" x="330" y="288">JobRuntime</text>
  <text class="small muted" x="414" y="288">Pgmq : Tracing : Error : IOE stack</text>

  <text class="small muted" x="16" y="334">keiro-pgmq builds on:</text>
  <rect class="node muted" x="150" y="316" width="190" height="28" rx="6"/>
  <text class="code small" x="245" y="334" text-anchor="middle">shibuya-pgmq-adapter</text>
  <rect class="node muted" x="352" y="316" width="150" height="28" rx="6"/>
  <text class="code small" x="427" y="334" text-anchor="middle">pgmq-effectful</text>
</svg>
