<svg xmlns="http://www.w3.org/2000/svg" viewBox="0 0 680 328">
  <text class="heading" x="20" y="24">Source tree</text>
  <rect class="group" x="16" y="36" width="284" height="120" rx="8"/>
  <rect class="node" x="36" y="56" width="244" height="32" rx="5"/>
  <text class="code small" x="158" y="76" text-anchor="middle">migrations/accounts/manifest</text>
  <rect class="node" x="36" y="104" width="244" height="32" rx="5"/>
  <text class="code small" x="158" y="124" text-anchor="middle">0001-create-accounts.sql</text>

  <path class="edge" d="M300 96 H374" marker-end="url(#arrow)"/>
  <text class="small" x="338" y="88" text-anchor="middle">build</text>
  <text class="small muted" x="338" y="114" text-anchor="middle">exact bytes</text>

  <text class="heading accent" x="384" y="24">Release binary</text>
  <rect class="group accent" x="380" y="36" width="284" height="120" rx="8"/>
  <rect class="node" x="400" y="50" width="244" height="28" rx="5"/>
  <text x="522" y="69" text-anchor="middle">accounts component</text>
  <rect class="node accent" x="400" y="84" width="244" height="28" rx="5"/>
  <text class="code" x="522" y="103" text-anchor="middle">MigrationPlan</text>
  <rect class="node" x="400" y="118" width="244" height="28" rx="5"/>
  <text x="522" y="137" text-anchor="middle">mounted CLI commands</text>

  <path class="edge accent" d="M522 158 V218" marker-end="url(#arrow-accent)"/>
  <text class="small" x="512" y="186" text-anchor="end">runtime: status, up, verify</text>

  <text class="heading halo" x="384" y="238">PostgreSQL</text>
  <rect class="group" x="380" y="224" width="284" height="96" rx="8"/>
  <rect class="node" x="400" y="248" width="244" height="28" rx="5"/>
  <text class="code" x="522" y="267" text-anchor="middle">accounts</text>
  <rect class="node" x="400" y="282" width="244" height="28" rx="5"/>
  <text x="522" y="301" text-anchor="middle">pgmigrate ledger</text>

  <text class="small muted" x="36" y="186">At runtime, the binary does not</text>
  <text class="small muted" x="36" y="202">read this directory.</text>
</svg>
