<svg xmlns="http://www.w3.org/2000/svg" viewBox="0 0 680 404">
  <text class="heading" x="16" y="22">Before</text>
  <text class="heading" x="372" y="22">After</text>
  <rect class="node ghost" x="16" y="34" width="292" height="34" rx="5"/>
  <text class="code small muted" x="30" y="56"># Architecture … prose above</text>
  <rect class="node violet" x="16" y="76" width="292" height="34" rx="5"/>
  <text class="code small" x="30" y="98">&lt;!-- seihou: incident-command begin --&gt;</text>
  <rect class="node amber" x="16" y="118" width="292" height="70" rx="5"/>
  <text class="code small" x="30" y="140">```mermaid</text>
  <text class="small amber" x="30" y="158">the old diagram</text>
  <text class="code small" x="30" y="176">```</text>
  <rect class="node violet" x="16" y="196" width="292" height="34" rx="5"/>
  <text class="code small" x="30" y="218">&lt;!-- seihou: incident-command end --&gt;</text>
  <rect class="node ghost" x="16" y="238" width="292" height="34" rx="5"/>
  <text class="code small muted" x="30" y="260">Some prose below.</text>
  <rect class="node ghost" x="372" y="34" width="292" height="34" rx="5"/>
  <text class="code small muted" x="386" y="56"># Architecture … prose above</text>
  <rect class="node violet" x="372" y="76" width="292" height="34" rx="5"/>
  <text class="code small" x="386" y="98">&lt;!-- seihou: incident-command begin --&gt;</text>
  <rect class="node accent" x="372" y="118" width="292" height="70" rx="5"/>
  <text class="code small" x="386" y="140">```mermaid</text>
  <text class="small accent" x="386" y="158">blockContent, trailing newlines stripped</text>
  <text class="code small" x="386" y="176">```</text>
  <rect class="node violet" x="372" y="196" width="292" height="34" rx="5"/>
  <text class="code small" x="386" y="218">&lt;!-- seihou: incident-command end --&gt;</text>
  <rect class="node ghost" x="372" y="238" width="292" height="34" rx="5"/>
  <text class="code small muted" x="386" y="260">Some prose below.</text>
  <path class="edge accent" d="M308 125 H366" marker-end="url(#arrow-accent)"/>
  <text class="small muted" x="16" y="300">Grey parts are kept byte for byte. Only the span between the markers changes.</text>
  <text class="code small" x="16" y="326">replaceMarkdownDiagramBlock blk doc</text>
  <text class="small" x="16" y="350">exactly one begin and one end marker: Right newDoc</text>
  <text class="small rose" x="16" y="370">a marker missing: Left MissingBeginMarker or Left MissingEndMarker</text>
  <text class="small rose" x="16" y="390">a marker found twice: Left (DuplicateMarker marker count)</text>
</svg>
