<svg xmlns="http://www.w3.org/2000/svg" viewBox="0 0 680 426">
  <text class="code small" x="16" y="22">SpanCells = IORef (Map SpanKey (IORef OpenState))</text>
  <text class="heading" x="24" y="48">Outer map</text>
  <text class="heading" x="250" y="48">Per-key cells</text>
  <text class="heading" x="500" y="48">Worker threads</text>
  <rect class="group" x="12" y="58" width="208" height="330" rx="8"/>
  <rect class="node" x="24" y="97" width="184" height="34" rx="5"/>
  <text class="code small" x="116" y="118" text-anchor="middle">("audit", Nothing)</text>
  <path class="edge" d="M208 114 H244" marker-end="url(#arrow)"/>
  <rect class="node accent" x="250" y="64" width="210" height="100" rx="6"/>
  <text class="code small accent" x="262" y="84">IORef OpenState</text>
  <text class="code small" x="262" y="104" xml:space="preserve">catchup   :: Maybe Span</text>
  <text class="code small" x="262" y="120" xml:space="preserve">reconnect :: Maybe Span</text>
  <text class="code small" x="262" y="136" xml:space="preserve">pause     :: Maybe Span</text>
  <text class="code small" x="262" y="152" xml:space="preserve">retries   :: Map Int64 Span</text>
  <path class="edge accent" d="M498 114 H466" marker-end="url(#arrow-accent)"/>
  <rect class="node" x="498" y="86" width="170" height="56" rx="6"/>
  <text class="code small" x="512" y="108">audit · no group</text>
  <text class="small muted" x="512" y="128">writes only its own cell</text>
  <rect class="node" x="24" y="205" width="184" height="34" rx="5"/>
  <text class="code small" x="116" y="226" text-anchor="middle">("orders", Just 0)</text>
  <path class="edge" d="M208 222 H244" marker-end="url(#arrow)"/>
  <rect class="node accent" x="250" y="172" width="210" height="100" rx="6"/>
  <text class="code small accent" x="262" y="192">IORef OpenState</text>
  <text class="code small" x="262" y="212" xml:space="preserve">catchup   :: Maybe Span</text>
  <text class="code small" x="262" y="228" xml:space="preserve">reconnect :: Maybe Span</text>
  <text class="code small" x="262" y="244" xml:space="preserve">pause     :: Maybe Span</text>
  <text class="code small" x="262" y="260" xml:space="preserve">retries   :: Map Int64 Span</text>
  <path class="edge accent" d="M498 222 H466" marker-end="url(#arrow-accent)"/>
  <rect class="node" x="498" y="194" width="170" height="56" rx="6"/>
  <text class="code small" x="512" y="216">orders · member 0</text>
  <text class="small muted" x="512" y="236">writes only its own cell</text>
  <rect class="node" x="24" y="313" width="184" height="34" rx="5"/>
  <text class="code small" x="116" y="334" text-anchor="middle">("orders", Just 1)</text>
  <path class="edge" d="M208 330 H244" marker-end="url(#arrow)"/>
  <rect class="node accent" x="250" y="280" width="210" height="100" rx="6"/>
  <text class="code small accent" x="262" y="300">IORef OpenState</text>
  <text class="code small" x="262" y="320" xml:space="preserve">catchup   :: Maybe Span</text>
  <text class="code small" x="262" y="336" xml:space="preserve">reconnect :: Maybe Span</text>
  <text class="code small" x="262" y="352" xml:space="preserve">pause     :: Maybe Span</text>
  <text class="code small" x="262" y="368" xml:space="preserve">retries   :: Map Int64 Span</text>
  <path class="edge accent" d="M498 330 H466" marker-end="url(#arrow-accent)"/>
  <rect class="node" x="498" y="302" width="170" height="56" rx="6"/>
  <text class="code small" x="512" y="324">orders · member 1</text>
  <text class="small muted" x="512" y="344">writes only its own cell</text>
  <text class="small muted" x="16" y="414">Workers read the outer map without a lock. Only Started and Stopped change it.</text>
</svg>
