<svg xmlns="http://www.w3.org/2000/svg" viewBox="0 0 680 670">
  <text class="heading" x="20" y="24">Prepared events: one record per event</text>
  <rect class="node" x="250" y="36" width="120" height="170" rx="6"/>
  <text class="bold" x="310" y="56" text-anchor="middle">e1</text>
  <path class="axis" d="M258 66 H362"/>
  <rect class="node accent" x="390" y="36" width="120" height="170" rx="6"/>
  <text class="bold accent" x="450" y="56" text-anchor="middle">e2</text>
  <path class="axis" d="M398 66 H502"/>
  <rect class="node" x="530" y="36" width="120" height="170" rx="6"/>
  <text class="bold" x="590" y="56" text-anchor="middle">e3</text>
  <path class="axis" d="M538 66 H642"/>
  <text class="code small muted" x="30" y="82">eventId</text>
  <text class="code small" x="310" y="82" text-anchor="middle">uuid-1</text>
  <text class="code small accent" x="450" y="82" text-anchor="middle">uuid-2</text>
  <text class="code small" x="590" y="82" text-anchor="middle">uuid-3</text>
  <text class="code small muted" x="30" y="104">eventType</text>
  <text class="code small" x="310" y="104" text-anchor="middle">type-1</text>
  <text class="code small accent" x="450" y="104" text-anchor="middle">type-2</text>
  <text class="code small" x="590" y="104" text-anchor="middle">type-3</text>
  <text class="code small muted" x="30" y="126">causationId</text>
  <text class="code small" x="310" y="126" text-anchor="middle">cause-1</text>
  <text class="code small accent" x="450" y="126" text-anchor="middle">cause-2</text>
  <text class="code small" x="590" y="126" text-anchor="middle">cause-3</text>
  <text class="code small muted" x="30" y="148">correlationId</text>
  <text class="code small" x="310" y="148" text-anchor="middle">corr-1</text>
  <text class="code small accent" x="450" y="148" text-anchor="middle">corr-2</text>
  <text class="code small" x="590" y="148" text-anchor="middle">corr-3</text>
  <text class="code small muted" x="30" y="170">payload</text>
  <text class="code small" x="310" y="170" text-anchor="middle">data-1</text>
  <text class="code small accent" x="450" y="170" text-anchor="middle">data-2</text>
  <text class="code small" x="590" y="170" text-anchor="middle">data-3</text>
  <text class="code small muted" x="30" y="192">metadata</text>
  <text class="code small" x="310" y="192" text-anchor="middle">meta-1</text>
  <text class="code small accent" x="450" y="192" text-anchor="middle">meta-2</text>
  <text class="code small" x="590" y="192" text-anchor="middle">meta-3</text>
  <path class="edge" d="M450 212 V250" marker-end="url(#arrow)"/>
  <text class="code small" x="438" y="236" text-anchor="end">buildAppendParams name now prepared</text>
  <text class="heading" x="20" y="278">AppendParams: one array per column</text>
  <rect class="band" x="16" y="290" width="648" height="28" rx="5"/>
  <text class="code small" x="26" y="308">$1 uuid[]</text>
  <text class="small muted" x="150" y="308">eventIds</text>
  <rect class="node" x="250" y="294" width="120" height="20" rx="4"/>
  <text class="code small" x="310" y="308" text-anchor="middle">uuid-1</text>
  <rect class="node accent" x="390" y="294" width="120" height="20" rx="4"/>
  <text class="code small accent" x="450" y="308" text-anchor="middle">uuid-2</text>
  <rect class="node" x="530" y="294" width="120" height="20" rx="4"/>
  <text class="code small" x="590" y="308" text-anchor="middle">uuid-3</text>
  <rect class="band" x="16" y="324" width="648" height="28" rx="5"/>
  <text class="code small" x="26" y="342">$2 text[]</text>
  <text class="small muted" x="150" y="342">eventTypes</text>
  <rect class="node" x="250" y="328" width="120" height="20" rx="4"/>
  <text class="code small" x="310" y="342" text-anchor="middle">type-1</text>
  <rect class="node accent" x="390" y="328" width="120" height="20" rx="4"/>
  <text class="code small accent" x="450" y="342" text-anchor="middle">type-2</text>
  <rect class="node" x="530" y="328" width="120" height="20" rx="4"/>
  <text class="code small" x="590" y="342" text-anchor="middle">type-3</text>
  <rect class="band" x="16" y="358" width="648" height="28" rx="5"/>
  <text class="code small" x="26" y="376">$3 uuid[]</text>
  <text class="small muted" x="150" y="376">causationIds</text>
  <rect class="node" x="250" y="362" width="120" height="20" rx="4"/>
  <text class="code small" x="310" y="376" text-anchor="middle">cause-1</text>
  <rect class="node accent" x="390" y="362" width="120" height="20" rx="4"/>
  <text class="code small accent" x="450" y="376" text-anchor="middle">cause-2</text>
  <rect class="node" x="530" y="362" width="120" height="20" rx="4"/>
  <text class="code small" x="590" y="376" text-anchor="middle">cause-3</text>
  <rect class="band" x="16" y="392" width="648" height="28" rx="5"/>
  <text class="code small" x="26" y="410">$4 uuid[]</text>
  <text class="small muted" x="150" y="410">correlationIds</text>
  <rect class="node" x="250" y="396" width="120" height="20" rx="4"/>
  <text class="code small" x="310" y="410" text-anchor="middle">corr-1</text>
  <rect class="node accent" x="390" y="396" width="120" height="20" rx="4"/>
  <text class="code small accent" x="450" y="410" text-anchor="middle">corr-2</text>
  <rect class="node" x="530" y="396" width="120" height="20" rx="4"/>
  <text class="code small" x="590" y="410" text-anchor="middle">corr-3</text>
  <rect class="band" x="16" y="426" width="648" height="28" rx="5"/>
  <text class="code small" x="26" y="444">$5 jsonb[]</text>
  <text class="small muted" x="150" y="444">payloads</text>
  <rect class="node" x="250" y="430" width="120" height="20" rx="4"/>
  <text class="code small" x="310" y="444" text-anchor="middle">data-1</text>
  <rect class="node accent" x="390" y="430" width="120" height="20" rx="4"/>
  <text class="code small accent" x="450" y="444" text-anchor="middle">data-2</text>
  <rect class="node" x="530" y="430" width="120" height="20" rx="4"/>
  <text class="code small" x="590" y="444" text-anchor="middle">data-3</text>
  <rect class="band" x="16" y="460" width="648" height="28" rx="5"/>
  <text class="code small" x="26" y="478">$6 jsonb[]</text>
  <text class="small muted" x="150" y="478">metadatas</text>
  <rect class="node" x="250" y="464" width="120" height="20" rx="4"/>
  <text class="code small" x="310" y="478" text-anchor="middle">meta-1</text>
  <rect class="node accent" x="390" y="464" width="120" height="20" rx="4"/>
  <text class="code small accent" x="450" y="478" text-anchor="middle">meta-2</text>
  <rect class="node" x="530" y="464" width="120" height="20" rx="4"/>
  <text class="code small" x="590" y="478" text-anchor="middle">meta-3</text>
  <rect class="band" x="16" y="494" width="648" height="28" rx="5"/>
  <text class="code small" x="26" y="512">$7 timestamptz[]</text>
  <text class="small muted" x="150" y="512">createdAts</text>
  <rect class="node" x="250" y="498" width="120" height="20" rx="4"/>
  <text class="code small" x="310" y="512" text-anchor="middle">now</text>
  <rect class="node accent" x="390" y="498" width="120" height="20" rx="4"/>
  <text class="code small accent" x="450" y="512" text-anchor="middle">now</text>
  <rect class="node" x="530" y="498" width="120" height="20" rx="4"/>
  <text class="code small" x="590" y="512" text-anchor="middle">now</text>
  <rect class="band" x="16" y="528" width="648" height="28" rx="5"/>
  <text class="code small" x="26" y="546">$8 text</text>
  <text class="small muted" x="150" y="546">streamName</text>
  <rect class="node" x="250" y="532" width="400" height="20" rx="4"/>
  <text class="code small" x="450" y="546" text-anchor="middle">orders-1 (one value for the batch)</text>
  <path class="edge" d="M340 562 V592" marker-end="url(#arrow)"/>
  <rect class="node accent" x="110" y="598" width="460" height="56" rx="6"/>
  <text class="code accent" x="340" y="621" text-anchor="middle">unnest($1, …, $7) WITH ORDINALITY</text>
  <text class="small" x="340" y="641" text-anchor="middle">3 rows with idx 1, 2, 3 · one statement, one round trip</text>
</svg>
